<mxfile host="app.diagrams.net" modified="2024-02-05T14:12:12.287Z" agent="Mozilla/5.0 (Windows NT 10.0; Win64; x64) AppleWebKit/537.36 (KHTML, like Gecko) Chrome/120.0.0.0 Safari/537.36" version="23.1.1" etag="bcgIWdKnzeQ1QUDUVi9p" type="github">
  <diagram name="PÃ¡gina-1" id="QefJVvmsv7pWHoVR7oj2">
    <mxGraphModel>
      <root>
        <mxCell id="0" />
        <mxCell id="1" parent="0" />
      </root>
    </mxGraphModel>
  </diagram>
</mxfile>
